<svg xmlns="http://www.w3.org/2000/svg" version="1.1" viewBox="-5.0 -10.0 110.0 135.0">
 <path d="m28.125 28.125c0-12.062 9.8125-21.875 21.875-21.875s21.875 9.8125 21.875 21.875-9.8125 21.875-21.875 21.875-21.875-9.8125-21.875-21.875zm21.875 25c-19.523 0-35.574 14.645-37.344 34.055-0.15234 1.6836 0.41406 3.3672 1.5547 4.6133 1.1328 1.2422 2.7461 1.9531 4.4297 1.9531h62.727c1.6797 0 3.293-0.71094 4.4297-1.9531 1.1406-1.2461 1.7031-2.9297 1.5547-4.6133-1.7695-19.414-17.824-34.055-37.344-34.055z"/>
<text x="0.0" y="117.5" font-size="5.0" font-weight="bold" font-family="Arbeit Regular, Helvetica, Arial-Unicode, Arial, Sans-serif" fill="#000000">Created by Corner Pixel</text><text x="0.0" y="122.5" font-size="5.0" font-weight="bold" font-family="Arbeit Regular, Helvetica, Arial-Unicode, Arial, Sans-serif" fill="#000000">from Noun Project</text></svg>